<svg id="&#x421;&#x43B;&#x43E;&#x439;_1" enable-background="new 0 0 12 12" viewBox="0 0 12 12" xmlns="http://www.w3.org/2000/svg"><g fill="rgb(0,0,0)"><path d="m10.5 1.125h-9c-.7578125 0-1.375.6166992-1.375 1.375v7c0 .7583008.6171875 1.375 1.375 1.375h9c.7578125 0 1.375-.6166992 1.375-1.375v-7c0-.7583008-.6171875-1.375-1.375-1.375zm-9 .75h9c.3447266 0 .625.2802734.625.625v3.5942383l-2.359375-2.359375c-.1464844-.1464844-.3847656-.1464844-.53125 0l-4.234375 4.2348633-1.234375-1.2348633c-.1464844-.1464844-.3847656-.1464844-.53125 0l-1.359375 1.359375v-5.5942383c0-.3447266.2802734-.625.625-.625zm9 8.25h-9c-.3447266 0-.625-.2802734-.625-.625v-.3442993l1.625-1.6254273 1.234375 1.2348633c.1464844.1464844.3847656.1464844.53125 0l4.234375-4.2348633 2.625 2.6254883v2.3442383c0 .3447266-.2802734.625-.625.625z"/><path d="m3.5 5.875c.7578125 0 1.375-.6166992 1.375-1.375s-.6171875-1.375-1.375-1.375-1.375.6166992-1.375 1.375.6171875 1.375 1.375 1.375zm0-2c.3447266 0 .625.2802734.625.625s-.2802734.625-.625.625-.625-.2802734-.625-.625.2802734-.625.625-.625z"/></g></svg>