<svg width="44" height="44" viewBox="0 0 44 44" fill="none" xmlns="http://www.w3.org/2000/svg">
<rect width="44" height="44" rx="22" fill="#E1A200" fill-opacity="0.1"/>
<path d="M20.9718 12.7085C21.4382 11.9335 22.5618 11.9335 23.0282 12.7085L25.3586 16.5809C25.5262 16.8593 25.7995 17.0578 26.116 17.1312L30.5191 18.1509C31.4002 18.355 31.7474 19.4236 31.1545 20.1066L28.1918 23.5196C27.9788 23.765 27.8744 24.0863 27.9025 24.41L28.2932 28.9127C28.3714 29.8138 27.4625 30.4742 26.6296 30.1214L22.4681 28.3583C22.1689 28.2316 21.8311 28.2316 21.5319 28.3583L17.3704 30.1214C16.5375 30.4742 15.6286 29.8138 15.7068 28.9127L16.0975 24.41C16.1256 24.0863 16.0212 23.765 15.8082 23.5196L12.8455 20.1066C12.2526 19.4236 12.5998 18.355 13.4809 18.1509L17.884 17.1312C18.2005 17.0578 18.4738 16.8593 18.6414 16.5809L20.9718 12.7085Z" stroke="#E1A200" stroke-width="1.5"/>
</svg>
