<svg width="28" height="27" viewBox="0 0 28 27" fill="none" xmlns="http://www.w3.org/2000/svg">
<path d="M9.55747 14.138L18.9127 22.3694C19.0208 22.4651 19.152 22.5311 19.2933 22.5608C19.4346 22.5905 19.5812 22.5829 19.7187 22.5388C19.8562 22.4947 19.9798 22.4156 20.0775 22.3093C20.1752 22.203 20.2436 22.0731 20.2759 21.9323L24.1887 4.84527C24.2215 4.69811 24.2137 4.54481 24.1662 4.40173C24.1187 4.25864 24.0332 4.13115 23.9189 4.03286C23.8045 3.93456 23.6657 3.86916 23.5171 3.84363C23.3685 3.8181 23.2158 3.8334 23.0752 3.88789L3.86525 11.4324C3.09518 11.7342 3.19925 12.8581 4.01093 13.0246L9.55747 14.138Z" stroke="#E8E8E8" stroke-width="1.11" stroke-linecap="round" stroke-linejoin="round"/>
<path d="M9.55746 14.138L23.7204 3.90869" stroke="#E8E8E8" stroke-width="1.11" stroke-linecap="round" stroke-linejoin="round"/>
<path d="M14.2299 18.2485L10.9831 21.4952C10.8673 21.6128 10.7191 21.6934 10.5574 21.7266C10.3957 21.7598 10.2278 21.7441 10.075 21.6817C9.92217 21.6192 9.79138 21.5127 9.69923 21.3758C9.60709 21.2388 9.55774 21.0775 9.55746 20.9125V14.138" stroke="#E8E8E8" stroke-width="1.11" stroke-linecap="round" stroke-linejoin="round"/>
</svg>
