<?xml version="1.0"?>
<svg xmlns="http://www.w3.org/2000/svg" viewBox="0 0 32 32" width="512" height="512"><g id="Icon_copy" data-name="Icon copy"><path d="M30,21V10a8.0092,8.0092,0,0,0-8-8H10a8.0092,8.0092,0,0,0-8,8V22a8.0092,8.0092,0,0,0,8,8H20a1.0009,1.0009,0,0,0,.6646-.2524l9-8a.9882.9882,0,0,0,.3059-.6095l.0024-.0115A.9707.9707,0,0,0,30,21Zm-9,5.7544V24.5a2.6032,2.6032,0,0,1,2.6-2.6H26.394ZM4,22V10a6.0066,6.0066,0,0,1,6-6H22a6.0066,6.0066,0,0,1,6,6v9.9H23.6A4.6052,4.6052,0,0,0,19,24.5V28H10A6.0066,6.0066,0,0,1,4,22Z"/><path d="M13,11v-.5a2.5,2.5,0,0,0-5,0V11a1,1,0,0,0,2,0v-.5a.5.5,0,0,1,1,0V11a1,1,0,0,0,2,0Z"/><path d="M20,12a1,1,0,0,0,1-1v-.5a.5.5,0,0,1,1,0V11a1,1,0,0,0,2,0v-.5a2.5,2.5,0,0,0-5,0V11A1,1,0,0,0,20,12Z"/><path d="M20.5,16.5V15a1,1,0,0,0-1-1h-7a1,1,0,0,0-1,1v1.5a4.5,4.5,0,0,0,9,0Zm-7,0V16h5v.5a2.5,2.5,0,0,1-5,0Z"/></g></svg>
