<svg width="45" height="44" viewBox="0 0 45 44" fill="none" xmlns="http://www.w3.org/2000/svg">
<rect x="0.5" width="44" height="44" rx="22" fill="#F7F7F7" fill-opacity="0.1"/>
<path fill-rule="evenodd" clip-rule="evenodd" d="M12.75 11.5C12.3358 11.5 12 11.8358 12 12.25V16.75C12 17.1642 11.6642 17.5 11.25 17.5C10.8358 17.5 10.5 17.1642 10.5 16.75V12.25C10.5 11.0074 11.5074 10 12.75 10H17.25C17.6642 10 18 10.3358 18 10.75C18 11.1642 17.6642 11.5 17.25 11.5H12.75ZM27 10.75C27 10.3358 27.3358 10 27.75 10H32.25C33.4926 10 34.5 11.0074 34.5 12.25V16.75C34.5 17.1642 34.1642 17.5 33.75 17.5C33.3358 17.5 33 17.1642 33 16.75V12.25C33 11.8358 32.6642 11.5 32.25 11.5H27.75C27.3358 11.5 27 11.1642 27 10.75ZM11.25 26.5C11.6642 26.5 12 26.8358 12 27.25V31.75C12 32.1642 12.3358 32.5 12.75 32.5H17.25C17.6642 32.5 18 32.8358 18 33.25C18 33.6642 17.6642 34 17.25 34H12.75C11.5074 34 10.5 32.9926 10.5 31.75V27.25C10.5 26.8358 10.8358 26.5 11.25 26.5ZM33.75 26.5C34.1642 26.5 34.5 26.8358 34.5 27.25V31.75C34.5 32.9926 33.4926 34 32.25 34H27.75C27.3358 34 27 33.6642 27 33.25C27 32.8358 27.3358 32.5 27.75 32.5H32.25C32.6642 32.5 33 32.1642 33 31.75V27.25C33 26.8358 33.3358 26.5 33.75 26.5Z" fill="white"/>
<path d="M15 16.75C15 16.3358 15.3358 16 15.75 16C16.1642 16 16.5 16.3358 16.5 16.75V27.25C16.5 27.6642 16.1642 28 15.75 28C15.3358 28 15 27.6642 15 27.25V16.75Z" fill="white"/>
<path d="M18 16.75C18 16.3358 18.3358 16 18.75 16C19.1642 16 19.5 16.3358 19.5 16.75V27.25C19.5 27.6642 19.1642 28 18.75 28C18.3358 28 18 27.6642 18 27.25V16.75Z" fill="white"/>
<path d="M21 16.75C21 16.3358 21.3358 16 21.75 16C22.1642 16 22.5 16.3358 22.5 16.75V27.25C22.5 27.6642 22.1642 28 21.75 28C21.3358 28 21 27.6642 21 27.25V16.75Z" fill="white"/>
<path d="M24 16.75C24 16.3358 24.3358 16 24.75 16H26.25C26.6642 16 27 16.3358 27 16.75V27.25C27 27.6642 26.6642 28 26.25 28H24.75C24.3358 28 24 27.6642 24 27.25V16.75Z" fill="white"/>
<path d="M28.5 16.75C28.5 16.3358 28.8358 16 29.25 16C29.6642 16 30 16.3358 30 16.75V27.25C30 27.6642 29.6642 28 29.25 28C28.8358 28 28.5 27.6642 28.5 27.25V16.75Z" fill="white"/>
</svg>
