<svg width="44" height="44" viewBox="0 0 44 44" fill="none" xmlns="http://www.w3.org/2000/svg">
<rect width="44" height="44" rx="22" fill="#F7F7F7" fill-opacity="0.1"/>
<path d="M22 12C27.52 12 32 16.48 32 22C32 27.52 27.52 32 22 32C20.16 32 18.43 31.5 16.94 30.63L12 32L13.34 27C12.49 25.53 12 23.82 12 22C12 18.3 14.01 15.07 17 13.34" stroke="white" stroke-width="1.5" stroke-miterlimit="10" stroke-linecap="round" stroke-linejoin="round"/>
<path d="M27 25.17C27 25.35 26.96 25.54 26.87 25.72C26.78 25.9 26.67 26.07 26.53 26.23C26.28 26.5 26.01 26.7 25.71 26.82C25.41 26.95 25.08 27.01 24.73 27.01C24.22 27.01 23.67 26.89 23.1 26.64C22.52 26.39 21.95 26.06 21.38 25.65C20.8 25.23 20.26 24.76 19.74 24.25C19.22 23.73 18.76 23.18 18.34 22.61C17.93 22.04 17.6 21.47 17.36 20.9C17.12 20.33 17 19.78 17 19.26C17 18.92 17.06 18.59 17.18 18.29C17.3 17.98 17.49 17.7 17.76 17.45C18.08 17.13 18.43 16.98 18.8 16.98C18.94 16.98 19.08 17.01 19.21 17.07C19.34 17.13 19.46 17.22 19.55 17.35L20.71 18.99C20.8 19.12 20.87 19.23 20.91 19.34C20.96 19.45 20.98 19.55 20.98 19.65C20.98 19.77 20.94 19.89 20.87 20.01C20.8 20.13 20.71 20.25 20.59 20.37L20.21 20.77C20.15 20.83 20.13 20.89 20.13 20.97C20.13 21.01 20.14 21.05 20.15 21.09C20.17 21.13 20.18 21.16 20.19 21.19C20.28 21.36 20.44 21.57 20.66 21.83C20.89 22.09 21.13 22.36 21.39 22.62C21.66 22.89 21.92 23.13 22.19 23.36C22.45 23.58 22.67 23.73 22.84 23.82C22.87 23.83 22.9 23.85 22.93 23.86C22.97 23.88 23.01 23.88 23.06 23.88C23.15 23.88 23.21 23.85 23.27 23.79L23.65 23.41C23.78 23.28 23.9 23.19 24.01 23.13C24.13 23.06 24.24 23.02 24.37 23.02C24.47 23.02 24.57 23.04 24.68 23.09C24.79 23.14 24.91 23.2 25.03 23.29L26.69 24.47C26.82 24.56 26.91 24.67 26.97 24.79C26.97 24.91 27 25.03 27 25.17Z" stroke="white" stroke-width="1.5" stroke-miterlimit="10"/>
</svg>
