<svg width="44" height="44" viewBox="0 0 44 44" fill="none" xmlns="http://www.w3.org/2000/svg">
<rect width="44" height="44" rx="22" fill="#F7F7F7" fill-opacity="0.1"/>
<path d="M22 12C27.52 12 32 16.48 32 22C32 27.52 27.52 32 22 32C20.16 32 18.43 31.5 16.94 30.63L12 32L13.34 27C12.49 25.53 12 23.82 12 22C12 18.3 14.01 15.07 17 13.34" stroke="white" stroke-width="1.5" stroke-miterlimit="10" stroke-linecap="round" stroke-linejoin="round"/>
<path d="M19 26V18H22.0686C22.684 18 23.1913 18.0914 23.5904 18.2743C23.9979 18.4495 24.3015 18.6933 24.501 19.0057C24.7006 19.3105 24.8004 19.6533 24.8004 20.0343C24.8004 20.5524 24.6466 20.96 24.3389 21.2571C24.0395 21.5543 23.6778 21.76 23.2536 21.8743C23.578 21.9276 23.8732 22.0457 24.1393 22.2286C24.4054 22.4114 24.6133 22.64 24.763 22.9143C24.921 23.1886 25 23.4895 25 23.8171C25 24.221 24.8919 24.5905 24.6757 24.9257C24.4595 25.2533 24.1393 25.5162 23.7152 25.7143C23.2911 25.9048 22.7755 26 22.1684 26H19ZM20.0478 21.4971H21.9938C22.5509 21.4971 22.9792 21.379 23.2786 21.1429C23.578 20.899 23.7277 20.5638 23.7277 20.1371C23.7277 19.7333 23.578 19.4095 23.2786 19.1657C22.9875 18.9219 22.5468 18.8 21.9563 18.8H20.0478V21.4971ZM20.0478 25.2H22.0561C22.6549 25.2 23.1164 25.0743 23.4407 24.8229C23.7651 24.5638 23.9272 24.2057 23.9272 23.7486C23.9272 23.299 23.7568 22.941 23.4158 22.6743C23.0748 22.4 22.6133 22.2629 22.0312 22.2629H20.0478V25.2Z" fill="white"/>
</svg>
